<?xml version="1.0"?>
<svg xmlns="http://www.w3.org/2000/svg" viewBox="0 0 512 512" width="512" height="512"><g id="_19-balloon" data-name="19-balloon"><g id="linear_color" data-name="linear color"><path d="M377.154,49.071C344.787,20.007,301.761,4,256,4S167.213,20.007,134.846,49.071C102.058,78.514,84,117.909,84,160c0,25.146,6.632,52.423,19.178,78.882,12.206,25.742,30.064,50.865,51.645,72.654,21.2,21.4,36.923,50.884,41.177,59.275V420H176a12,12,0,0,0,0,24h4v20a44.049,44.049,0,0,0,44,44h64a44.049,44.049,0,0,0,44-44V444h4a12,12,0,0,0,0-24H316V370.811c4.258-8.4,19.981-37.874,41.178-59.275,21.58-21.789,39.438-46.912,51.644-72.654C421.368,212.423,428,185.146,428,160,428,117.909,409.942,78.514,377.154,49.071ZM324,160c0,45.262-12.122,96.763-32.428,137.767C281.738,317.623,274.29,342.694,270.7,356h-29.39c-3.595-13.306-11.043-38.377-20.877-58.233C200.122,256.763,188,205.262,188,160c0-71.552,31.141-132,68-132S324,88.448,324,160Zm-216,0c0-54.251,36.89-100.956,89.468-121.228C176.918,67.154,164,110.546,164,160c0,48.778,13.055,104.262,34.92,148.417,7.537,15.218,13.708,34.515,17.456,47.583h-1c-6.652-12.613-22.369-40.022-43.5-61.353C131.878,254.265,108,203.93,108,160ZM308,464a20.023,20.023,0,0,1-20,20H224a20.023,20.023,0,0,1-20-20V444H308Zm-88-44V380h72v40ZM340.126,294.647C319,315.978,303.281,343.387,296.629,356h-1c3.748-13.068,9.919-32.365,17.456-47.583C334.945,264.262,348,208.778,348,160c0-49.454-12.918-92.846-33.468-121.228C367.11,59.044,404,105.749,404,160,404,203.93,380.122,254.265,340.126,294.647Z"/></g></g></svg>
